<?xml version="1.0" encoding="UTF-8"?><!DOCTYPE svg PUBLIC "-//W3C//DTD SVG 1.1//EN" "http://www.w3.org/Graphics/SVG/1.1/DTD/svg11.dtd"><svg xmlns="http://www.w3.org/2000/svg" xmlns:xlink="http://www.w3.org/1999/xlink" version="1.1" width="24" height="24" viewBox="0 0 24 24"><path d="M21,11.11V5C21,3.9 20.11,3 19,3H14.82C14.4,1.84 13.3,1 12,1H5C3.9,3 3,3.9 3,5V19C3,20.11 3.9,21 5,21H11.11C12.37,22.24 14.09,23 16,23C19.87,23 23,19.87 23,16C23,14.09 22.24,12.37 21,11.11M12,3C12.55,3 13,3.45 13,4M6,7H18V9H6V7M9.08,17H6V15H9.08C9.03,15.33 9,15.66 9,16M6,13V11H11.11C10.5,11.57 10.04,12.25 9.68,13H6M16,21C13.24,21 11,18.76 11,16M16.5,16.25L19.36,17.94L18.61,19.16L15,17V12H16.5V16.25Z" /></svg>